<svg xmlns="http://www.w3.org/2000/svg" width="191" height="62" viewBox="0 0 191 62" fill="none"><path d="M93.6615 29.7371H83.3741L76.4301 42.5963L69.4861 29.7371H59.1987V52.2408H67.5572V41.5354L73.6975 52.2408H79.1627L85.303 41.5354V52.2408H93.6615V29.7371Z" fill="#2D2D2D"></path><path d="M119.486 39.6708C120.579 38.3849 121.254 36.9061 121.254 35.4594C121.254 32.0517 119.679 29.7371 114.568 29.7371H94.9573V52.2408H115.532C120.644 52.2408 122.862 49.2831 122.862 45.5861C122.862 43.1428 121.447 41.0854 119.486 39.6708ZM103.316 35.2022H111.031C111.867 35.2022 112.896 35.2022 112.896 36.4239C112.896 37.6455 111.867 37.6455 111.031 37.6455H103.316V35.2022ZM112.639 46.1326H103.316V43.7537H112.639C113.475 43.7537 114.503 43.7537 114.503 44.9431C114.503 46.1326 113.475 46.1326 112.639 46.1326Z" fill="#2D2D2D"></path><path d="M158.303 29.7371H148.016L141.072 42.5963L134.128 29.7371H123.84V52.2408H132.199V41.5354L138.339 52.2408H143.804L149.945 41.5354V52.2408H158.303V29.7371Z" fill="#2D2D2D"></path><path d="M180.824 52.2408H190.019L180.696 29.7371H168.286L158.963 52.2408H168.158L169.701 48.1901H179.281L180.824 52.2408ZM171.887 42.4034L174.491 35.5237L177.095 42.4034H171.887Z" fill="#2D2D2D"></path><g clip-path="url(#clip0_554_204)"><path fill-rule="evenodd" clip-rule="evenodd" d="M22.3305 42.0535C22.3683 40.1985 22.3387 38.3478 22.3387 36.497V30.7388C22.3387 30.6082 22.3387 30.4736 22.3305 30.3435C22.1919 27.8786 21.1936 26.524 19.541 26.5535C17.8798 26.5873 16.9572 27.9669 16.9446 30.5116C16.9278 34.3476 16.9361 38.1836 16.9446 42.0199C16.9487 44.6067 17.9555 46.268 19.516 46.3313C21.156 46.3987 22.2759 44.7371 22.3305 42.0535ZM29.6459 40.2744C29.6796 39.0081 29.6502 37.7421 29.6543 36.4802V32.5474C29.6543 32.459 29.6543 32.3666 29.6459 32.2783C29.5158 30.5916 28.5932 29.6662 27.0621 29.6871C25.5225 29.7083 24.6668 30.6546 24.6585 32.3917C24.6418 35.0122 24.6459 37.6326 24.6542 40.2532C24.6627 42.0199 25.5897 43.1555 27.041 43.1976C28.5595 43.2438 29.5915 42.1082 29.6459 40.2744ZM37.4229 32.4758C42.2887 35.4918 42.3515 41.9104 37.4731 44.9052C28.6769 50.3062 19.8304 55.6313 10.9419 60.8723C6.21036 63.6651 0.270811 60.1403 0.245583 54.487C0.170129 37.0271 0.224713 19.567 0.203613 2.10273C0.203613 0.748391 0.799448 0.340411 2.06199 0.382267C5.28771 0.491736 8.64759 3.36461 9.3104 6.75471C9.52415 7.83997 9.63331 8.96295 9.63744 10.0694C9.65854 22.6038 9.64593 35.1426 9.65005 47.6815C9.65418 49.5321 10.4512 50.567 11.932 50.6804C13.6266 50.8108 14.7257 49.8223 14.7926 48.1062C14.8052 47.6983 14.7968 47.2944 14.7968 46.8864V20.8498C14.7968 19.9678 15.76 19.4239 16.5155 19.879C19.1694 21.4774 21.5986 22.9387 24.0251 24.3999C28.4925 27.0877 32.9934 29.7292 37.4229 32.4758Z" fill="#2D2D2D"></path></g><defs><clipPath id="clip0_554_204"><rect width="41.3333" height="62" fill="white"></rect></clipPath></defs></svg>